<?xml version="1.0" encoding="utf-8"?>
<!-- Generator: Adobe Illustrator 16.0.0, SVG Export Plug-In . SVG Version: 6.00 Build 0)  -->
<!DOCTYPE svg PUBLIC "-//W3C//DTD SVG 1.1//EN" "http://www.w3.org/Graphics/SVG/1.1/DTD/svg11.dtd">
<svg version="1.1" id="Layer_1" xmlns="http://www.w3.org/2000/svg" xmlns:xlink="http://www.w3.org/1999/xlink" x="0px" y="0px"
	 width="864px" height="720px" viewBox="0 0 864 720" enable-background="new 0 0 864 720" xml:space="preserve">
<g id="figure_1">
	<g id="axes_1">
		<g id="line2d_64">
			<g>
				<path fill="#FFFFFF" stroke="#1814D9" stroke-width="4" stroke-linecap="square" stroke-linejoin="round" d="M221.334,104.854
					l1.475,0.117l1.476,0.328l1.475,0.539l1.638,0.847l1.64,1.112l1.638,1.38l1.803,1.832l1.802,2.167l1.803,2.508l1.966,3.131
					l1.966,3.549l2.13,4.314l2.294,5.176l2.621,6.513l3.933,10.501l3.111,8.087l1.966,4.515l1.64,3.244l1.638,2.756l1.802,2.571
					l2.622,3.282l2.948,3.766l1.966,2.862l1.966,3.238l2.457,4.5l3.604,6.619l1.311,1.975l1.146,1.349l0.982,0.814l0.819,0.419
					l0.818,0.187l0.818-0.031l0.983-0.286l1.146-0.605l1.476-1.061l7.208-5.619l2.13-1.22l2.293-1.057l2.294-0.819l2.457-0.639
					l2.457-0.402l2.294-0.159l2.293,0.051l2.458,0.279l2.621,0.526l3.111,0.862l4.915,1.633l10.32,3.673l3.769,1.6l3.769,1.843
					l5.406,2.928l11.959,6.751l4.587,2.916l5.732,3.64l2.621,1.385l2.294,0.968l2.457,0.786l3.112,0.73l6.227,1.402l3.111,0.975
					l3.933,1.493l7.208,2.771"/>
			</g>
		</g>
	</g>
</g>
<text transform="matrix(1 0 0 1 250.9998 119)" font-family="'Arial-BoldMT'" font-size="48">Free</text>
<g>
	<g enable-background="new    ">
		<path d="M279.484,171.349c2.911-1.235,4.37-1.824,7.301-2.944c0.211,2.003,0.939,3.303,2.19,3.917s3.036,0.604,5.352,0.014
			c2.453-0.625,4.347-1.495,5.666-2.66s2.021-2.33,2.114-3.514c0.059-0.76-0.151-1.351-0.629-1.77s-1.354-0.689-2.605-0.778
			c-0.856-0.061-2.832-0.06-5.879,0.097c-3.921,0.202-6.586,0-8.037-0.767c-2.04-1.08-2.885-2.88-2.586-5.45
			c0.192-1.654,0.889-3.376,2.08-5.149s2.788-3.339,4.799-4.667s4.383-2.369,7.132-3.077c4.49-1.157,7.822-0.986,9.996,0.319
			s3.244,3.449,3.167,6.372c-2.987,0.65-4.478,1.005-7.451,1.773c-0.185-1.582-0.766-2.62-1.739-3.104s-2.49-0.482-4.544,0.048
			c-2.12,0.547-3.809,1.399-5.084,2.521c-0.821,0.721-1.276,1.504-1.363,2.343c-0.079,0.765,0.214,1.313,0.885,1.648
			c0.853,0.426,3.028,0.492,6.567,0.343s6.17,0.053,7.858,0.492s2.986,1.269,3.892,2.464s1.301,2.811,1.172,4.836
			c-0.117,1.836-0.831,3.657-2.155,5.485s-3.134,3.347-5.423,4.599s-5.102,2.267-8.41,3.111c-4.816,1.229-8.389,1.4-10.716,0.308
			S279.536,174.819,279.484,171.349z"/>
		<path d="M363.855,171.927c-3.412-0.333-5.12-0.464-8.54-0.653c-1.419-2.972-2.122-4.452-3.506-7.399
			c-6.145-0.237-9.224-0.237-15.369-0.003c-1.31,2.944-1.972,4.422-3.316,7.389c-3.335,0.18-5.002,0.304-8.33,0.621
			c5.286-10.842,10.429-21.752,15.401-32.742c3.133-0.063,4.7-0.063,7.833,0.001C353.138,150.147,358.427,161.072,363.855,171.927z
			 M349.265,158.424c-2.144-4.785-3.193-7.162-5.244-11.891c-2.011,4.73-3.039,7.109-5.142,11.893
			C343.033,158.317,345.111,158.315,349.265,158.424z"/>
		<path d="M378.367,163.564c2.955,0.273,4.426,0.438,7.358,0.823c0.608,2.213,1.637,3.963,3.085,5.27s3.339,2.24,5.653,2.837
			c2.451,0.633,4.247,0.708,5.389,0.175s1.644-1.388,1.518-2.58c-0.081-0.765-0.406-1.495-0.975-2.183s-1.514-1.423-2.831-2.172
			c-0.897-0.51-2.943-1.542-6.127-2.983c-4.095-1.854-7.009-3.486-8.725-5.066c-2.412-2.223-3.688-4.571-3.857-7.107
			c-0.108-1.633,0.321-3.065,1.276-4.287s2.386-2.012,4.29-2.334s4.23-0.157,6.981,0.546c4.492,1.147,7.927,3.055,10.379,5.548
			s3.919,5.288,4.382,8.311c-2.883-0.858-4.333-1.258-7.247-2c-0.485-1.754-1.276-3.145-2.374-4.161s-2.667-1.805-4.723-2.329
			c-2.122-0.541-3.755-0.541-4.9-0.042c-0.736,0.321-1.076,0.902-1.009,1.735c0.061,0.76,0.479,1.49,1.258,2.197
			c0.991,0.899,3.325,2.122,6.991,3.821s6.393,3.279,8.195,4.613s3.266,2.874,4.398,4.593s1.824,3.614,2.067,5.668
			c0.221,1.863-0.156,3.404-1.152,4.636s-2.544,1.888-4.652,2.011s-4.816-0.279-8.123-1.131c-4.813-1.241-8.624-2.965-11.351-5.355
			S379.094,167.235,378.367,163.564z"/>
	</g>
</g>
</svg>
